<?xml version="1.0" encoding="utf-8"?>
<!-- Generator: Adobe Illustrator 22.0.1, SVG Export Plug-In . SVG Version: 6.00 Build 0)  -->
<svg version="1.1" id="Layer_1" xmlns="http://www.w3.org/2000/svg" xmlns:xlink="http://www.w3.org/1999/xlink" x="0px" y="0px"
	 viewBox="0 0 83.1 79.5" style="enable-background:new 0 0 83.1 79.5;" xml:space="preserve">
<path d="M76.7,34.1H40.7V20.4C40.7,9.1,31.6,0,20.4,0S0,9.1,0,20.4v17.3c0,2.1,1.7,3.9,3.9,3.9s3.9-1.7,3.9-3.9V20.4
	c0-7,5.7-12.7,12.7-12.7c7,0,12.7,5.7,12.7,12.7v13.7h-2.9c-3.5,0-6.4,2.9-6.4,6.4v32.6c0,3.5,2.9,6.4,6.4,6.4h46.5
	c3.6,0,6.4-2.9,6.4-6.4V40.5C83.1,37,80.2,34.1,76.7,34.1z M55.3,58.8v7.6c0,1.1-0.9,2-2,2c-1.1,0-2-0.9-2-2v-7.6
	c-2.2-0.8-3.8-2.9-3.8-5.4c0-3.2,2.6-5.8,5.8-5.8c3.2,0,5.8,2.6,5.8,5.8C59.2,55.9,57.6,58,55.3,58.8z"/>
</svg>
